<?xml version="1.0" standalone="no"?>
<!DOCTYPE svg PUBLIC "-//W3C//DTD SVG 20010904//EN"
 "http://www.w3.org/TR/2001/REC-SVG-20010904/DTD/svg10.dtd">
<svg version="1.0" xmlns="http://www.w3.org/2000/svg"
 width="512.000000pt" height="512.000000pt" viewBox="0 0 512.000000 512.000000"
 preserveAspectRatio="xMidYMid meet">
<metadata>
Created by potrace 1.14, written by Peter Selinger 2001-2017
</metadata>
<g transform="translate(0.000000,512.000000) scale(0.100000,-0.100000)"
fill="#000000" stroke="none">
<path d="M861 4866 c-36 -20 -50 -54 -51 -123 l0 -63 -60 0 c-107 0 -140 -33
-140 -142 l0 -63 -62 1 c-72 2 -109 -13 -126 -51 -9 -20 -12 -506 -12 -2070
l0 -2043 31 -31 31 -31 1498 0 c928 0 1508 4 1524 10 40 15 56 50 58 124 l2
66 57 0 c110 0 141 30 142 135 l1 65 68 0 c61 0 71 3 100 29 l33 29 1 1639 2
1638 -447 447 -446 448 -1090 -1 c-880 0 -1095 -2 -1114 -13z"/>
<path d="M4195 4850 c-11 -12 -15 -42 -15 -111 l0 -95 -29 2 c-15 1 -35 -2
-42 -7 -12 -7 -14 -300 -15 -1891 l-1 -1883 89 -250 c49 -137 96 -273 103
-302 17 -64 22 -73 40 -73 17 0 32 26 39 66 3 16 48 147 101 291 l95 263 0
1662 c0 915 0 1725 0 1801 l0 137 55 0 55 0 2 -511 c3 -475 4 -513 21 -523 12
-8 22 -8 35 0 16 10 17 49 20 537 l2 525 -31 26 c-26 22 -40 26 -95 26 l-64 0
0 38 c0 45 -24 72 -63 72 l-27 0 0 93 c0 50 -4 98 -9 106 -15 23 -246 23 -266
1z"/>
</g>
</svg>
